<svg xmlns="http://www.w3.org/2000/svg" width="199.7" height="194.5" viewBox="0 0 199.7 194.5"><style>.st0{fill:#fff;opacity:.75}</style><path class="st0" d="M196.5 159.2l-37.9-36.5c-.8-.9-1.8-1.6-2.8-2.2 5.7-11 8.9-23.1 9.2-35.8.6-22-7.5-43-22.6-58.9C127.2 9.7 106.7.6 84.7 0c-22-.6-43 7.5-58.9 22.6C9.7 37.8.6 58.3 0 80.3c-.6 22 7.5 43 22.6 58.9 10.6 11.2 23.8 19 38.4 22.9 6.2 1.7 12.7 2.6 19.3 2.8 15.7.4 30.9-3.6 44.1-11.4.2.3.5.6.7.8l37.9 36.5c4.5 4.8 12.2 5 17 .4l16-15.1c4.8-4.5 5-12.2.5-16.9zM81.2 133c-13.5-.4-26-5.9-35.3-15.7-9.3-9.8-14.2-22.6-13.8-36.1.4-13.5 5.9-26 15.7-35.3 9.8-9.3 22.6-14.2 36.1-13.8 4 .1 8 .7 11.8 1.7 8.9 2.4 17 7.2 23.5 14 9.3 9.8 14.2 22.6 13.8 36.1-.4 13.5-5.9 26-15.7 35.3-9.8 9.2-22.6 14.1-36.1 13.8z"/></svg>