<svg xmlns="http://www.w3.org/2000/svg" width="58.9" height="34.4" viewBox="0 0 58.9 34.4" overflow="scroll"><style>.st0{fill:#fff}.st1{fill:#bd0034}.st2{fill:#1a237b}</style><path class="st0" d="M0 0h58.9v34.4H0z"/><path class="st1" d="M39.5 12.4L58.9 1.5V0h-1.3L35.4 12.4zm-1 10.2L58.9 34v-2.2l-16.3-9.2zM0 2.6l17.4 9.8h4.1L0 .3zm20.6 20L0 34.2v.2h3.7l21-11.8z"/><path class="st2" d="M54.9 0H34.3v11.6zM25.2 0H4.6l20.6 11.6zm33.7 12.4V4.5l-14 7.9zm0 18v-7.8h-14zm-53.1 4h19.4V23.5zm28.5 0h19.4L34.3 23.5zM0 22.6v8.2l14.5-8.2zm0-10.2h14.5L0 4.3z"/><path class="st1" d="M27 0v14.5H0v6.1h27v13.8h5.4V20.6h26.5v-6.1H32.4V0z"/></svg>