<?xml version="1.0" encoding="utf-8"?>
<svg version="1.1" id="Layer_1" xmlns="http://www.w3.org/2000/svg" xmlns:xlink="http://www.w3.org/1999/xlink" x="0px" y="0px"
	 viewBox="0 0 30 30" style="enable-background:new 0 0 30 30;" width="30" height="30" xml:space="preserve">
<style type="text/css">
	.st0{fill:#FFFFFF;stroke:#FF0000;stroke-width:3;}
	.st1{enable-background:new    ;}
</style>
<title>18-plus</title>
<ellipse class="st0" cx="15" cy="15" rx="13.5" ry="13.2"/>
<g class="st1">
	<path d="M7.1,12.2H5.6V10h4.1v10.3H7.1V12.2z"/>
	<path d="M12.5,14.9c-1-0.4-1.6-1.2-1.6-2.3c0-0.4,0.1-0.8,0.3-1.2s0.4-0.7,0.7-0.9c0.3-0.3,0.7-0.5,1.1-0.6
		c0.4-0.1,0.9-0.2,1.4-0.2s1,0.1,1.4,0.2c0.4,0.1,0.8,0.3,1.1,0.6c0.3,0.3,0.5,0.6,0.7,0.9c0.2,0.4,0.3,0.7,0.3,1.2
		c0,0.3,0,0.5-0.1,0.7s-0.1,0.4-0.3,0.6c-0.1,0.2-0.3,0.3-0.5,0.5s-0.5,0.3-0.8,0.5c1.4,0.5,2.1,1.4,2.1,2.7c0,0.4-0.1,0.8-0.3,1.2
		c-0.2,0.4-0.5,0.7-0.8,1s-0.7,0.5-1.2,0.6c-0.5,0.2-1,0.2-1.5,0.2s-1-0.1-1.5-0.2c-0.5-0.2-0.9-0.4-1.2-0.6c-0.3-0.3-0.6-0.6-0.8-1
		s-0.3-0.8-0.3-1.2C10.5,16.3,11.2,15.4,12.5,14.9z M13.1,17.2c0,0.2,0,0.3,0.1,0.5s0.1,0.3,0.3,0.4c0.1,0.1,0.2,0.2,0.4,0.3
		s0.3,0.1,0.5,0.1s0.3,0,0.5-0.1s0.3-0.2,0.4-0.3c0.1-0.1,0.2-0.2,0.3-0.4c0.1-0.2,0.1-0.3,0.1-0.5c0-0.3-0.1-0.6-0.4-0.9
		c-0.2-0.2-0.5-0.4-0.8-0.4s-0.6,0.1-0.9,0.4C13.3,16.6,13.1,16.9,13.1,17.2z M13.2,12.6c0,0.3,0.1,0.6,0.3,0.8s0.5,0.3,0.8,0.3
		c0.2,0,0.3,0,0.4-0.1s0.2-0.1,0.3-0.3c0.1-0.1,0.2-0.2,0.2-0.4s0.1-0.3,0.1-0.4c0-0.3-0.1-0.6-0.3-0.8s-0.5-0.3-0.8-0.3
		s-0.6,0.1-0.8,0.3C13.3,12,13.2,12.3,13.2,12.6z"/>
	<path d="M17.8,14.3h2.7v-2.8h1.7v2.8H25v1.8h-2.7v2.8h-1.7v-2.8h-2.7L17.8,14.3L17.8,14.3z"/>
</g>
</svg>
